<?xml version="1.0" encoding="utf-8"?>
<svg xmlns="http://www.w3.org/2000/svg" viewBox="0 0 28 28" xmlns:bx="https://boxy-svg.com"
  width="28px" height="28px">
  <defs>
    <path id="c"
      d="M.462.535A.06.06 0 0 0 .505.518.06.06 0 0 0 .522.474V.22q0-.106-.059-.168Q.403-.01.293-.01t-.17.062A.24.24 0 0 0 .066.22v.254a.06.06 0 0 0 .017.044.06.06 0 0 0 .043.017.06.06 0 0 0 .043-.017.06.06 0 0 0 .017-.044V.22q0-.06.027-.09T.293.1Q.348.1.375.13t.027.09v.254a.06.06 0 0 0 .017.044.06.06 0 0 0 .043.017" />
    <path
      d="M.462.566A.09.09 0 0 0 .553.474V.22A.26.26 0 0 0 .486.03a.25.25 0 0 0-.193-.07q-.124 0-.192.072A.27.27 0 0 0 .034.22v.254a.09.09 0 0 0 .091.092.09.09 0 0 0 .091-.092V.22q0-.05.02-.07Q.251.133.292.132q.04 0 .059.02T.37.22v.254a.09.09 0 0 0 .091.092m0-.062a.03.03 0 0 1-.02-.008.03.03 0 0 1-.009-.022V.22q0-.073-.035-.112T.293.068t-.104.04T.154.22v.254a.03.03 0 0 1-.008.022.03.03 0 0 1-.021.008.03.03 0 0 1-.02-.008.03.03 0 0 1-.009-.022V.22q0-.093.05-.147.05-.052.147-.052T.44.074.49.22v.254a.03.03 0 0 1-.007.022.03.03 0 0 1-.021.008"
      id="b" />
    <clipPath id="a">
      <path d="M0 0h48v50.25H0Z" clip-rule="evenodd" />
    </clipPath>
    <bx:export>
      <bx:file format="svg" path="Sin título.svg" />
    </bx:export>
  </defs>
  <g clip-path="url(#a)" transform="matrix(0.937569, 0, 0, 0.933714, -9.367312, -10.320319)"
    style="transform-origin: -1.63344px -0.679681px;">
    <path
      d="M.462.566A.09.09 0 0 0 .553.474V.22A.26.26 0 0 0 .486.03a.25.25 0 0 0-.193-.07q-.124 0-.192.072A.27.27 0 0 0 .034.22v.254a.09.09 0 0 0 .091.092.09.09 0 0 0 .091-.092V.22q0-.05.02-.07Q.251.133.292.132q.04 0 .059.02T.37.22v.254a.09.09 0 0 0 .091.092m0-.062a.03.03 0 0 1-.02-.008.03.03 0 0 1-.009-.022V.22q0-.073-.035-.112T.293.068t-.104.04T.154.22v.254a.03.03 0 0 1-.008.022.03.03 0 0 1-.021.008.03.03 0 0 1-.02-.008.03.03 0 0 1-.009-.022V.22q0-.093.05-.147.05-.052.147-.052T.44.074.49.22v.254a.03.03 0 0 1-.007.022.03.03 0 0 1-.021.008"
      transform="matrix(0, -22.127389907836914, -22.127389907836914, 0, 35.862998962402344, 37.29899978637695)"
      fill="#fff" />
    <path
      d="M.462.535A.06.06 0 0 0 .505.518.06.06 0 0 0 .522.474V.22q0-.106-.059-.168Q.403-.01.293-.01t-.17.062A.24.24 0 0 0 .066.22v.254a.06.06 0 0 0 .017.044.06.06 0 0 0 .043.017.06.06 0 0 0 .043-.017.06.06 0 0 0 .017-.044V.22q0-.06.027-.09T.293.1Q.348.1.375.13t.027.09v.254a.06.06 0 0 0 .017.044.06.06 0 0 0 .043.017"
      transform="matrix(0, -22.127389907836914, -22.127389907836914, 0, 35.862998962402344, 37.29899978637695)"
      fill="#00d492" />
    <path
      d="M.462.566A.09.09 0 0 0 .553.474V.22A.26.26 0 0 0 .486.03a.25.25 0 0 0-.193-.07q-.124 0-.192.072A.27.27 0 0 0 .034.22v.254a.09.09 0 0 0 .091.092.09.09 0 0 0 .091-.092V.22q0-.05.02-.07Q.251.133.292.132q.04 0 .059.02T.37.22v.254a.09.09 0 0 0 .091.092m0-.062a.03.03 0 0 1-.02-.008.03.03 0 0 1-.009-.022V.22q0-.073-.035-.112T.293.068t-.104.04T.154.22v.254a.03.03 0 0 1-.008.022.03.03 0 0 1-.021.008.03.03 0 0 1-.02-.008.03.03 0 0 1-.009-.022V.22q0-.093.05-.147.05-.052.147-.052T.44.074.49.22v.254a.03.03 0 0 1-.007.022.03.03 0 0 1-.021.008"
      transform="matrix(-19.238890230582722, 10.930987459009895, 10.930987459009895, 19.238890230582722, 28.66722380577507, 12.585643168760871)"
      fill="#fff" />
    <path
      d="M.462.535A.06.06 0 0 0 .505.518.06.06 0 0 0 .522.474V.22q0-.106-.059-.168Q.403-.01.293-.01t-.17.062A.24.24 0 0 0 .066.22v.254a.06.06 0 0 0 .017.044.06.06 0 0 0 .043.017.06.06 0 0 0 .043-.017.06.06 0 0 0 .017-.044V.22q0-.06.027-.09T.293.1Q.348.1.375.13t.027.09v.254a.06.06 0 0 0 .017.044.06.06 0 0 0 .043.017"
      transform="matrix(-19.238890230582722, 10.930987459009895, 10.930987459009895, 19.238890230582722, 28.66722380577507, 12.585643168760871)"
      fill="#00d492" />
    <path
      d="M.462.566A.09.09 0 0 0 .553.474V.22A.26.26 0 0 0 .486.03a.25.25 0 0 0-.193-.07q-.124 0-.192.072A.27.27 0 0 0 .034.22v.254a.09.09 0 0 0 .091.092.09.09 0 0 0 .091-.092V.22q0-.05.02-.07Q.251.133.292.132q.04 0 .059.02T.37.22v.254a.09.09 0 0 0 .091.092m0-.062a.03.03 0 0 1-.02-.008.03.03 0 0 1-.009-.022V.22q0-.073-.035-.112T.293.068t-.104.04T.154.22v.254a.03.03 0 0 1-.008.022.03.03 0 0 1-.021.008.03.03 0 0 1-.02-.008.03.03 0 0 1-.009-.022V.22q0-.093.05-.147.05-.052.147-.052T.44.074.49.22v.254a.03.03 0 0 1-.007.022.03.03 0 0 1-.021.008"
      transform="matrix(19.102941968549157, 11.168672989239294, 11.168672989239294, -19.102941968549157, 10.974129946803595, 30.917105387025682)"
      fill="#fff" />
    <path
      d="M.462.535A.06.06 0 0 0 .505.518.06.06 0 0 0 .522.474V.22q0-.106-.059-.168Q.403-.01.293-.01t-.17.062A.24.24 0 0 0 .066.22v.254a.06.06 0 0 0 .017.044.06.06 0 0 0 .043.017.06.06 0 0 0 .043-.017.06.06 0 0 0 .017-.044V.22q0-.06.027-.09T.293.1Q.348.1.375.13t.027.09v.254a.06.06 0 0 0 .017.044.06.06 0 0 0 .043.017"
      transform="matrix(19.102941968549157, 11.168672989239294, 11.168672989239294, -19.102941968549157, 10.974129946803595, 30.917105387025682)"
      fill="#00d492" />
  </g>
</svg>